<?xml version="1.0" encoding="UTF-8" standalone="no"?>
<svg width="408px" height="120px" viewBox="0 0 408 120" version="1.1" xmlns="http://www.w3.org/2000/svg" xmlns:xlink="http://www.w3.org/1999/xlink">
    <!-- Generator: Sketch 3.8.3 (29802) - http://www.bohemiancoding.com/sketch -->
    <title>Group</title>
    <desc>Created with Sketch.</desc>
    <defs>
        <polygon id="path-1" points="0 147 313 147 313 0 0 0"></polygon>
    </defs>
    <g id="Page-1" stroke="none" stroke-width="1" fill="none" fill-rule="evenodd">
        <g id="Group" transform="translate(0.000000, -69.000000)">
            <g id="SIMRES-LOGO-Whale-colour">
                <path d="M72.3647,89.939 C81.7827,88.189 85.0837,91.834 94.6757,86.379 C85.6967,92.556 78.8537,90.767 72.9207,92.494 M82.6877,77.859 C78.4337,74.283 72.0947,73.885 67.8727,77.328 C73.0557,79.232 78.3507,81.772 82.6877,77.859 M72.9217,92.497 C73.1587,100.775 60.9777,112.517 58.2737,100.088 C51.3647,104.266 44.5587,109.137 37.6987,113.641 C34.1777,110.346 30.1877,110.121 26.1437,108.713 C17.6347,110.647 12.5747,124.578 16.0047,132.09 C21.3677,131.66 27.4107,115.066 36.2187,114.523 C30.5127,121.682 17.6897,135.998 18.0697,144.119 C18.2697,148.356 23.3457,156.533 24.2147,160.695 C19.6207,156.732 18.8207,160.857 18.4687,161.211 C23.7147,169.322 33.9527,151.764 48.6027,172.164 C38.1307,169.27 37.3107,175.043 29.2927,172.143 C25.3977,170.736 19.5417,168.082 16.7217,165.676 C2.5137,153.565 -6.0133,130.813 6.0977,105.338 C7.8157,101.725 12.0657,97.65 15.9107,96.373 C20.0147,95.02 24.2247,98.109 28.1097,93.385 C25.2827,93.729 25.3537,89.244 24.7197,86.664 C20.8277,86.109 13.8377,92.883 10.4647,95.861 C13.1157,90.006 9.9717,76.135 3.3897,72.023 C2.8127,71.662 3.4807,71.174 3.4807,71.174 C10.8247,65.92 22.2047,79.588 29.9887,77.467 C34.1297,76.338 37.7767,73.799 41.5907,72.459 C49.0507,69.828 56.6937,68.803 65.1457,69.002 C72.7007,69.178 79.5997,69.152 88.2337,74.639 C92.3487,77.252 95.4057,79.981 95.6757,84.379 C89.8847,85.912 83.1007,80.67 77.2317,81.668 C75.1077,83.609 73.0537,86 70.9407,88.008 C71.5787,88.569 72.0477,89.222 72.3687,89.94" id="Fill-1" fill="#636462"></path>
                <path d="M104.9097,88.5068 C115.0307,98.6278 121.2907,112.6108 121.2907,128.0548 C121.2907,158.9458 96.2497,183.9858 65.3607,183.9858 C59.2977,183.9858 53.4597,183.0208 47.9927,181.2368" id="Stroke-3" stroke="#84CAC1" stroke-width="9" stroke-linecap="round"></path>
            </g>
            <g id="SIMRES-LOGO-Fulltext-grey" transform="translate(124.000000, 56.000000)">
                <path d="M18.4341,41.5273 L20.3321,39.2543 C21.6461,40.3383 23.0231,41.0273 24.6921,41.0273 C26.0051,41.0273 26.7981,40.5063 26.7981,39.6503 L26.7981,39.6073 C26.7981,38.7953 26.2971,38.3773 23.8571,37.7523 C20.9161,37.0003 19.0181,36.1873 19.0181,33.2873 L19.0181,33.2463 C19.0181,30.5973 21.1461,28.8453 24.1281,28.8453 C26.2561,28.8453 28.0711,29.5113 29.5511,30.7013 L27.8831,33.1213 C26.5891,32.2243 25.3181,31.6813 24.0861,31.6813 C22.8561,31.6813 22.2091,32.2443 22.2091,32.9553 L22.2091,32.9963 C22.2091,33.9553 22.8351,34.2673 25.3591,34.9143 C28.3211,35.6873 29.9901,36.7503 29.9901,39.2953 L29.9901,39.3383 C29.9901,42.2363 27.7791,43.8633 24.6291,43.8633 C22.4181,43.8633 20.1861,43.0913 18.4341,41.5273 L18.4341,41.5273 Z" id="Fill-1" fill="#636462"></path>
                <path d="M42.9429,37.543 L41.0029,32.809 L39.0629,37.543 L42.9429,37.543 Z M39.5629,28.949 L42.5249,28.949 L48.7829,43.654 L45.4239,43.654 L44.0889,40.381 L37.9159,40.381 L36.5809,43.654 L33.3059,43.654 L39.5629,28.949 Z" id="Fill-3" fill="#636462"></path>
                <polygon id="Fill-5" fill="#636462" points="54.6431 32.0156 50.2001 32.0156 50.2001 29.0526 62.2981 29.0526 62.2981 32.0156 57.8551 32.0156 57.8551 43.6546 54.6431 43.6546"></polygon>
                <path d="M66.6147,37.3965 L66.6147,29.0525 L69.8277,29.0525 L69.8277,37.3145 C69.8277,39.6915 71.0157,40.9215 72.9767,40.9215 C74.9377,40.9215 76.1267,39.7325 76.1267,37.4175 L76.1267,29.0525 L79.3387,29.0525 L79.3387,37.2925 C79.3387,41.7145 76.8567,43.8845 72.9347,43.8845 C69.0137,43.8845 66.6147,41.6935 66.6147,37.3965" id="Fill-7" fill="#636462"></path>
                <path d="M91.1641,36.1465 C92.7281,36.1465 93.6251,35.3105 93.6251,34.0805 L93.6251,34.0395 C93.6251,32.6625 92.6661,31.9535 91.1021,31.9535 L87.9101,31.9535 L87.9101,36.1465 L91.1641,36.1465 Z M84.6971,29.0525 L91.3731,29.0525 C93.2281,29.0525 94.6681,29.5745 95.6291,30.5355 C96.4411,31.3475 96.8791,32.4965 96.8791,33.8715 L96.8791,33.9145 C96.8791,36.2715 95.6071,37.7515 93.7501,38.4395 L97.3181,43.6545 L93.5621,43.6545 L90.4341,38.9825 L87.9101,38.9825 L87.9101,43.6545 L84.6971,43.6545 L84.6971,29.0525 Z" id="Fill-9" fill="#636462"></path>
                <polygon id="Fill-11" fill="#636462" points="101.8633 29.0527 104.8263 29.0527 111.6683 38.0427 111.6683 29.0527 114.8383 29.0527 114.8383 43.6547 112.1053 43.6547 105.0353 34.3727 105.0353 43.6547 101.8633 43.6547"></polygon>
                <path d="M128.8125,37.543 L126.8735,32.809 L124.9335,37.543 L128.8125,37.543 Z M125.4335,28.949 L128.3945,28.949 L134.6525,43.654 L131.2945,43.654 L129.9595,40.381 L123.7855,40.381 L122.4515,43.654 L119.1755,43.654 L125.4335,28.949 Z" id="Fill-13" fill="#636462"></path>
                <mask id="mask-2" fill="white">
                    <use xlink:href="#path-1"></use>
                </mask>
                <g id="Clip-16"></g>
                <polygon id="Fill-15" fill="#636462" mask="url(#mask-2)" points="147.48 43.655 150.691 43.655 150.691 29.053 147.48 29.053"></polygon>
                <path d="M155.4258,41.5273 L157.3238,39.2543 C158.6388,40.3383 160.0158,41.0273 161.6838,41.0273 C162.9978,41.0273 163.7908,40.5063 163.7908,39.6503 L163.7908,39.6073 C163.7908,38.7953 163.2888,38.3773 160.8498,37.7523 C157.9078,37.0003 156.0098,36.1873 156.0098,33.2873 L156.0098,33.2463 C156.0098,30.5973 158.1388,28.8453 161.1208,28.8453 C163.2478,28.8453 165.0628,29.5113 166.5428,30.7013 L164.8748,33.1213 C163.5818,32.2243 162.3108,31.6813 161.0778,31.6813 C159.8478,31.6813 159.2008,32.2443 159.2008,32.9553 L159.2008,32.9963 C159.2008,33.9553 159.8278,34.2673 162.3518,34.9143 C165.3128,35.6873 166.9828,36.7503 166.9828,39.2953 L166.9828,39.3383 C166.9828,42.2363 164.7718,43.8633 161.6208,43.8633 C159.4098,43.8633 157.1778,43.0913 155.4258,41.5273" id="Fill-17" fill="#636462" mask="url(#mask-2)"></path>
                <polygon id="Fill-18" fill="#636462" mask="url(#mask-2)" points="171.8613 29.0527 175.0743 29.0527 175.0743 40.7347 182.3533 40.7347 182.3533 43.6547 171.8613 43.6547"></polygon>
                <path d="M195.2441,37.543 L193.3031,32.809 L191.3631,37.543 L195.2441,37.543 Z M191.8631,28.949 L194.8261,28.949 L201.0841,43.654 L197.7251,43.654 L196.3911,40.381 L190.2171,40.381 L188.8811,43.654 L185.6071,43.654 L191.8631,28.949 Z" id="Fill-19" fill="#636462" mask="url(#mask-2)"></path>
                <polygon id="Fill-20" fill="#636462" mask="url(#mask-2)" points="205.4219 29.0527 208.3829 29.0527 215.2249 38.0427 215.2249 29.0527 218.3969 29.0527 218.3969 43.6547 215.6639 43.6547 208.5919 34.3727 208.5919 43.6547 205.4219 43.6547"></polygon>
                <path d="M229.6797,40.7559 C232.3087,40.7559 234.0797,38.9829 234.0797,36.3969 L234.0797,36.3539 C234.0797,33.7679 232.3087,31.9529 229.6797,31.9529 L227.1977,31.9529 L227.1977,40.7559 L229.6797,40.7559 Z M223.9847,29.0529 L229.6797,29.0529 C234.2677,29.0529 237.4397,32.2029 237.4397,36.3129 L237.4397,36.3539 C237.4397,40.4629 234.2677,43.6539 229.6797,43.6539 L223.9847,43.6539 L223.9847,29.0529 Z" id="Fill-21" fill="#636462" mask="url(#mask-2)"></path>
                <polygon id="Fill-22" fill="#636462" mask="url(#mask-2)" points="19.4351 66.1895 22.8981 66.1895 26.7361 72.3655 30.5741 66.1895 34.0371 66.1895 34.0371 80.7915 30.8451 80.7915 30.8451 71.2595 26.7361 77.4965 26.6531 77.4965 22.5841 71.3225 22.5841 80.7915 19.4351 80.7915"></polygon>
                <path d="M48.0112,74.6797 L46.0712,69.9457 L44.1312,74.6797 L48.0112,74.6797 Z M44.6312,66.0857 L47.5932,66.0857 L53.8512,80.7907 L50.4922,80.7907 L49.1572,77.5177 L42.9842,77.5177 L41.6492,80.7907 L38.3742,80.7907 L44.6312,66.0857 Z" id="Fill-23" fill="#636462" mask="url(#mask-2)"></path>
                <path d="M64.6558,73.2832 C66.2198,73.2832 67.1168,72.4472 67.1168,71.2172 L67.1168,71.1762 C67.1168,69.7992 66.1568,69.0902 64.5938,69.0902 L61.4018,69.0902 L61.4018,73.2832 L64.6558,73.2832 Z M58.1888,66.1892 L64.8638,66.1892 C66.7198,66.1892 68.1598,66.7112 69.1188,67.6722 C69.9328,68.4842 70.3708,69.6332 70.3708,71.0082 L70.3708,71.0512 C70.3708,73.4082 69.0978,74.8882 67.2418,75.5762 L70.8088,80.7912 L67.0538,80.7912 L63.9258,76.1192 L61.4018,76.1192 L61.4018,80.7912 L58.1888,80.7912 L58.1888,66.1892 Z" id="Fill-24" fill="#636462" mask="url(#mask-2)"></path>
                <polygon id="Fill-25" fill="#636462" mask="url(#mask-2)" points="75.501 80.791 78.713 80.791 78.713 66.189 75.501 66.189"></polygon>
                <polygon id="Fill-26" fill="#636462" mask="url(#mask-2)" points="84.4473 66.1895 87.4103 66.1895 94.2523 75.1795 94.2523 66.1895 97.4223 66.1895 97.4223 80.7915 94.6893 80.7915 87.6193 71.5095 87.6193 80.7915 84.4473 80.7915"></polygon>
                <polygon id="Fill-27" fill="#636462" mask="url(#mask-2)" points="103.0117 66.1895 114.0257 66.1895 114.0257 69.0485 106.2027 69.0485 106.2027 72.0095 113.0857 72.0095 113.0857 74.8675 106.2027 74.8675 106.2027 77.9335 114.1287 77.9335 114.1287 80.7915 103.0117 80.7915"></polygon>
                <path d="M133.8809,73.2832 C135.4449,73.2832 136.3419,72.4472 136.3419,71.2172 L136.3419,71.1762 C136.3419,69.7992 135.3829,69.0902 133.8189,69.0902 L130.6269,69.0902 L130.6269,73.2832 L133.8809,73.2832 Z M127.4139,66.1892 L134.0899,66.1892 C135.9449,66.1892 137.3849,66.7112 138.3459,67.6722 C139.1579,68.4842 139.5959,69.6332 139.5959,71.0082 L139.5959,71.0512 C139.5959,73.4082 138.3239,74.8882 136.4669,75.5762 L140.0349,80.7912 L136.2789,80.7912 L133.1509,76.1192 L130.6269,76.1192 L130.6269,80.7912 L127.4139,80.7912 L127.4139,66.1892 Z" id="Fill-28" fill="#636462" mask="url(#mask-2)"></path>
                <polygon id="Fill-29" fill="#636462" mask="url(#mask-2)" points="144.5801 66.1895 155.5941 66.1895 155.5941 69.0485 147.7711 69.0485 147.7711 72.0095 154.6561 72.0095 154.6561 74.8675 147.7711 74.8675 147.7711 77.9335 155.6991 77.9335 155.6991 80.7915 144.5801 80.7915"></polygon>
                <path d="M159.6406,78.6641 L161.5386,76.3911 C162.8516,77.4751 164.2286,78.1641 165.8986,78.1641 C167.2106,78.1641 168.0036,77.6431 168.0036,76.7871 L168.0036,76.7441 C168.0036,75.9321 167.5036,75.5141 165.0626,74.8891 C162.1226,74.1371 160.2246,73.3241 160.2246,70.4241 L160.2246,70.3831 C160.2246,67.7341 162.3516,65.9821 165.3336,65.9821 C167.4626,65.9821 169.2776,66.6481 170.7576,67.8381 L169.0896,70.2581 C167.7946,69.3611 166.5236,68.8181 165.2926,68.8181 C164.0626,68.8181 163.4156,69.3811 163.4156,70.0921 L163.4156,70.1331 C163.4156,71.0921 164.0406,71.4041 166.5646,72.0511 C169.5276,72.8241 171.1956,73.8871 171.1956,76.4321 L171.1956,76.4751 C171.1956,79.3731 168.9846,81.0001 165.8356,81.0001 C163.6246,81.0001 161.3926,80.2281 159.6406,78.6641" id="Fill-30" fill="#636462" mask="url(#mask-2)"></path>
                <polygon id="Fill-31" fill="#636462" mask="url(#mask-2)" points="176.0742 66.1895 187.0882 66.1895 187.0882 69.0485 179.2652 69.0485 179.2652 72.0095 186.1502 72.0095 186.1502 74.8675 179.2652 74.8675 179.2652 77.9335 187.1932 77.9335 187.1932 80.7915 176.0742 80.7915"></polygon>
                <path d="M200.5215,74.6797 L198.5805,69.9457 L196.6405,74.6797 L200.5215,74.6797 Z M197.1405,66.0857 L200.1035,66.0857 L206.3615,80.7907 L203.0025,80.7907 L201.6685,77.5177 L195.4945,77.5177 L194.1585,80.7907 L190.8845,80.7907 L197.1405,66.0857 Z" id="Fill-32" fill="#636462" mask="url(#mask-2)"></path>
                <path d="M217.166,73.2832 C218.73,73.2832 219.627,72.4472 219.627,71.2172 L219.627,71.1762 C219.627,69.7992 218.666,69.0902 217.103,69.0902 L213.912,69.0902 L213.912,73.2832 L217.166,73.2832 Z M210.699,66.1892 L217.373,66.1892 C219.23,66.1892 220.67,66.7112 221.629,67.6722 C222.443,68.4842 222.881,69.6332 222.881,71.0082 L222.881,71.0512 C222.881,73.4082 221.607,74.8882 219.752,75.5762 L223.318,80.7912 L219.564,80.7912 L216.435,76.1192 L213.912,76.1192 L213.912,80.7912 L210.699,80.7912 L210.699,66.1892 Z" id="Fill-33" fill="#636462" mask="url(#mask-2)"></path>
                <path d="M227.2188,73.5332 L227.2188,73.4902 C227.2188,69.3402 230.3478,65.9392 234.8318,65.9392 C237.5858,65.9392 239.2328,66.8572 240.5878,68.1932 L238.5448,70.5512 C237.4178,69.5272 236.2718,68.9022 234.8108,68.9022 C232.3498,68.9022 230.5758,70.9452 230.5758,73.4492 L230.5758,73.4902 C230.5758,75.9942 232.3088,78.0802 234.8108,78.0802 C236.4808,78.0802 237.5018,77.4122 238.6488,76.3692 L240.6938,78.4332 C239.1918,80.0412 237.5238,81.0412 234.7068,81.0412 C230.4098,81.0412 227.2188,77.7242 227.2188,73.5332" id="Fill-34" fill="#636462" mask="url(#mask-2)"></path>
                <polygon id="Fill-35" fill="#636462" mask="url(#mask-2)" points="245.3438 66.1895 248.5568 66.1895 248.5568 71.9685 254.4808 71.9685 254.4808 66.1895 257.6918 66.1895 257.6918 80.7915 254.4808 80.7915 254.4808 74.9295 248.5568 74.9295 248.5568 80.7915 245.3438 80.7915"></polygon>
                <path d="M278.1309,69.8398 L278.1309,69.7988 C278.1309,68.9648 277.5689,68.4438 276.7539,68.4438 C275.8979,68.4438 275.3359,69.0488 275.3359,69.9238 L275.3359,69.9648 C275.3359,70.6128 275.5859,71.0918 276.1909,71.7808 C277.4629,71.3008 278.1309,70.7578 278.1309,69.8398 L278.1309,69.8398 Z M277.9629,77.5368 L275.1679,74.7008 C274.2089,75.2008 273.8129,75.9098 273.8129,76.6188 L273.8129,76.6618 C273.8129,77.6838 274.6679,78.3708 275.8579,78.3708 C276.5879,78.3708 277.2969,78.0588 277.9629,77.5368 L277.9629,77.5368 Z M279.7579,79.3728 C278.5679,80.3538 277.1719,80.9998 275.4829,80.9998 C272.6879,80.9998 270.5799,79.3728 270.5799,76.7868 L270.5799,76.7438 C270.5799,74.8888 271.5799,73.5738 273.4159,72.7398 C272.7069,71.7378 272.3949,70.8198 272.3949,69.8198 L272.3949,69.7778 C272.3949,67.7758 273.9999,65.9398 276.8159,65.9398 C279.2989,65.9398 280.9259,67.5668 280.9259,69.6108 L280.9259,69.6528 C280.9259,71.6128 279.6739,72.7618 277.8589,73.4708 L279.7989,75.4098 C280.2789,74.6578 280.7599,73.8048 281.2189,72.9058 L283.5739,74.1988 C283.0119,75.2228 282.3869,76.3068 281.6559,77.2868 L283.8049,79.4358 L281.4469,81.0838 L279.7579,79.3728 Z" id="Fill-36" fill="#636462" mask="url(#mask-2)"></path>
                <polygon id="Fill-37" fill="#636462" mask="url(#mask-2)" points="19.4351 103.3262 30.4491 103.3262 30.4491 106.1852 22.6261 106.1852 22.6261 109.1462 29.5101 109.1462 29.5101 112.0042 22.6261 112.0042 22.6261 115.0702 30.5531 115.0702 30.5531 117.9282 19.4351 117.9282"></polygon>
                <path d="M41.1899,115.0293 C43.8189,115.0293 45.5909,113.2563 45.5909,110.6703 L45.5909,110.6273 C45.5909,108.0413 43.8189,106.2263 41.1899,106.2263 L38.7089,106.2263 L38.7089,115.0293 L41.1899,115.0293 Z M35.4959,103.3263 L41.1899,103.3263 C45.7789,103.3263 48.9499,106.4763 48.9499,110.5863 L48.9499,110.6273 C48.9499,114.7363 45.7789,117.9273 41.1899,117.9273 L35.4959,117.9273 L35.4959,103.3263 Z" id="Fill-38" fill="#636462" mask="url(#mask-2)"></path>
                <path d="M53.6626,111.6699 L53.6626,103.3259 L56.8756,103.3259 L56.8756,111.5879 C56.8756,113.9649 58.0636,115.1949 60.0246,115.1949 C61.9856,115.1949 63.1746,114.0059 63.1746,111.6909 L63.1746,103.3259 L66.3866,103.3259 L66.3866,111.5659 C66.3866,115.9879 63.9046,118.1579 59.9826,118.1579 C56.0616,118.1579 53.6626,115.9669 53.6626,111.6699" id="Fill-39" fill="#636462" mask="url(#mask-2)"></path>
                <path d="M71.1001,110.6699 L71.1001,110.6269 C71.1001,106.4769 74.2291,103.0759 78.7131,103.0759 C81.4671,103.0759 83.1151,103.9939 84.4711,105.3299 L82.4261,107.6879 C81.3001,106.6639 80.1531,106.0389 78.6931,106.0389 C76.2311,106.0389 74.4581,108.0819 74.4581,110.5859 L74.4581,110.6269 C74.4581,113.1309 76.1901,115.2169 78.6931,115.2169 C80.3621,115.2169 81.3831,114.5489 82.5311,113.5059 L84.5741,115.5699 C83.0721,117.1779 81.4051,118.1779 78.5881,118.1779 C74.2911,118.1779 71.1001,114.8609 71.1001,110.6699" id="Fill-40" fill="#636462" mask="url(#mask-2)"></path>
                <path d="M97.6094,111.8164 L95.6704,107.0824 L93.7304,111.8164 L97.6094,111.8164 Z M94.2304,103.2224 L97.1914,103.2224 L103.4494,117.9274 L100.0914,117.9274 L98.7554,114.6544 L92.5824,114.6544 L91.2484,117.9274 L87.9724,117.9274 L94.2304,103.2224 Z" id="Fill-41" fill="#636462" mask="url(#mask-2)"></path>
                <polygon id="Fill-42" fill="#636462" mask="url(#mask-2)" points="109.3105 106.2891 104.8675 106.2891 104.8675 103.3261 116.9665 103.3261 116.9665 106.2891 112.5235 106.2891 112.5235 117.9281 109.3105 117.9281"></polygon>
                <polygon id="Fill-43" fill="#636462" mask="url(#mask-2)" points="121.658 117.928 124.871 117.928 124.871 103.326 121.658 103.326"></polygon>
                <path d="M142.1211,110.6699 L142.1211,110.6269 C142.1211,108.1249 140.2851,106.0389 137.6971,106.0389 C135.1111,106.0389 133.3181,108.0819 133.3181,110.5859 L133.3181,110.6269 C133.3181,113.1309 135.1541,115.2169 137.7401,115.2169 C140.3261,115.2169 142.1211,113.1719 142.1211,110.6699 M129.9591,110.6699 L129.9591,110.6269 C129.9591,106.4769 133.2341,103.0759 137.7401,103.0759 C142.2461,103.0759 145.4781,106.4359 145.4781,110.5859 L145.4781,110.6269 C145.4781,114.7789 142.2031,118.1779 137.6971,118.1779 C133.1931,118.1779 129.9591,114.8199 129.9591,110.6699" id="Fill-44" fill="#636462" mask="url(#mask-2)"></path>
                <polygon id="Fill-45" fill="#636462" mask="url(#mask-2)" points="150.4199 103.3262 153.3829 103.3262 160.2249 112.3162 160.2249 103.3262 163.3949 103.3262 163.3949 117.9282 160.6619 117.9282 153.5919 108.6462 153.5919 117.9282 150.4199 117.9282"></polygon>
                <path d="M176.3242,115.8008 L178.2222,113.5278 C179.5372,114.6118 180.9142,115.3008 182.5822,115.3008 C183.8962,115.3008 184.6892,114.7798 184.6892,113.9238 L184.6892,113.8808 C184.6892,113.0688 184.1872,112.6508 181.7482,112.0258 C178.8062,111.2738 176.9082,110.4608 176.9082,107.5608 L176.9082,107.5198 C176.9082,104.8708 179.0372,103.1188 182.0192,103.1188 C184.1462,103.1188 185.9612,103.7848 187.4412,104.9748 L185.7732,107.3948 C184.4802,106.4978 183.2092,105.9548 181.9762,105.9548 C180.7462,105.9548 180.0992,106.5178 180.0992,107.2288 L180.0992,107.2698 C180.0992,108.2288 180.7262,108.5408 183.2502,109.1878 C186.2112,109.9608 187.8812,111.0238 187.8812,113.5688 L187.8812,113.6118 C187.8812,116.5098 185.6702,118.1368 182.5192,118.1368 C180.3082,118.1368 178.0762,117.3648 176.3242,115.8008" id="Fill-46" fill="#636462" mask="url(#mask-2)"></path>
                <path d="M204.2754,110.6699 L204.2754,110.6269 C204.2754,108.1249 202.4394,106.0389 199.8514,106.0389 C197.2654,106.0389 195.4724,108.0819 195.4724,110.5859 L195.4724,110.6269 C195.4724,113.1309 197.3084,115.2169 199.8944,115.2169 C202.4804,115.2169 204.2754,113.1719 204.2754,110.6699 M192.1134,110.6699 L192.1134,110.6269 C192.1134,106.4769 195.3884,103.0759 199.8944,103.0759 C204.4004,103.0759 207.6324,106.4359 207.6324,110.5859 L207.6324,110.6269 C207.6324,114.7789 204.3574,118.1779 199.8514,118.1779 C195.3474,118.1779 192.1134,114.8199 192.1134,110.6699" id="Fill-47" fill="#636462" mask="url(#mask-2)"></path>
                <path d="M211.9277,110.6699 L211.9277,110.6269 C211.9277,106.4769 215.0567,103.0759 219.5407,103.0759 C222.2947,103.0759 223.9437,103.9939 225.2987,105.3299 L223.2537,107.6879 C222.1287,106.6639 220.9807,106.0389 219.5217,106.0389 C217.0587,106.0389 215.2867,108.0819 215.2867,110.5859 L215.2867,110.6269 C215.2867,113.1309 217.0177,115.2169 219.5217,115.2169 C221.1897,115.2169 222.2107,114.5489 223.3597,113.5059 L225.4027,115.5699 C223.9007,117.1779 222.2327,118.1779 219.4157,118.1779 C215.1187,118.1779 211.9277,114.8609 211.9277,110.6699" id="Fill-48" fill="#636462" mask="url(#mask-2)"></path>
                <polygon id="Fill-49" fill="#636462" mask="url(#mask-2)" points="230.199 117.928 233.412 117.928 233.412 103.326 230.199 103.326"></polygon>
                <polygon id="Fill-50" fill="#636462" mask="url(#mask-2)" points="239.1465 103.3262 250.1605 103.3262 250.1605 106.1852 242.3375 106.1852 242.3375 109.1462 249.2225 109.1462 249.2225 112.0042 242.3375 112.0042 242.3375 115.0702 250.2655 115.0702 250.2655 117.9282 239.1465 117.9282"></polygon>
                <polygon id="Fill-51" fill="#636462" mask="url(#mask-2)" points="258.6074 106.2891 254.1644 106.2891 254.1644 103.3261 266.2634 103.3261 266.2634 106.2891 261.8204 106.2891 261.8204 117.9281 258.6074 117.9281"></polygon>
                <polygon id="Fill-52" fill="#636462" mask="url(#mask-2)" points="274.918 112.1719 269.307 103.3259 273.06 103.3259 276.545 109.1879 280.09 103.3259 283.74 103.3259 278.129 112.1099 278.129 117.9279 274.918 117.9279"></polygon>
            </g>
        </g>
    </g>
</svg>